<?xml version="1.0" encoding="utf-8"?>
<!-- Generator: Adobe Illustrator 26.0.0, SVG Export Plug-In . SVG Version: 6.00 Build 0)  -->
<svg version="1.1" id="Camada_1" xmlns="http://www.w3.org/2000/svg" xmlns:xlink="http://www.w3.org/1999/xlink" x="0px" y="0px"
	 viewBox="0 0 1080 1080" style="enable-background:new 0 0 1080 1080;" xml:space="preserve">
<style type="text/css">
	.st0{fill:#FFFFFF;}
</style>
<g>
	<path class="st0" d="M912.2,717.2c0,45.8-21.6,67.2-67.4,67.2c-208.2,0.1-416.4,0.1-624.6,0c-41.7,0-65.8-22-66-63.6
		c-0.7-128-0.3-256.1-0.2-384.1c0-3.5,0.9-7.1,1.3-10.6c2.6-1.9,5.2-3.7,7.8-5.6c5.2,7.6,9.5,16.1,15.9,22.6
		c55.6,56.8,111.3,113.7,167.7,169.7c11.2,11.1,10.5,17.3-0.1,28.2c-41.6,42.7-82.3,86.4-122.9,130c-16.3,17.5-13.3,38.5,6.4,42.2
		c8.3,1.5,20.9-3.4,27.1-9.8c43-44,84.7-89.1,126.8-134c2.1-2.2,3.2-5.3,6.5-10.8c13.5,13.5,24.2,24.4,35.1,35
		c53,52.1,119.1,61.9,183.6,25.4c15.9-9,29.1-22.9,42.9-35.4c7.2-6.6,13-14.9,23.9-27.8c8.2,11.2,13.3,19.7,20,26.9
		c37.6,40.5,75.2,81.1,113.8,120.6c6.2,6.4,18.2,10.5,27.1,9.8c6-0.4,15.7-11.3,15.6-17.3c-0.1-9.3-5.3-20.2-11.7-27.3
		c-31.7-35-64.5-68.9-96.8-103.3c-11.5-12.2-22.9-24.5-36.1-38.6c66.4-67.7,132.6-135.1,202.6-206.5c0.9,11.4,1.8,17.7,1.8,24
		C912.3,468.5,912.4,592.8,912.2,717.2z"/>
	<path class="st0" d="M888.4,274.3c-23.8,24.8-47.5,49.8-71.6,74.4C749,417.9,681,486.9,613.2,556.2
		c-48.7,49.7-108.2,50.5-156.9,1.2C366.4,466.3,276.7,375,186.9,283.7c-2.9-3-5.5-6.3-12.8-14.7c20.9-3.4,37.3-8.2,53.8-8.3
		c158.5-0.6,317-0.3,475.5-0.3c46.6,0,93.3-0.6,139.9,0.3c14.7,0.3,29.4,4.7,44.2,7.2C887.9,270.1,888.2,272.2,888.4,274.3z"/>
</g>
</svg>
