<?xml version="1.0" encoding="utf-8"?>
<!-- Generator: Adobe Illustrator 26.0.0, SVG Export Plug-In . SVG Version: 6.00 Build 0)  -->
<svg version="1.1" id="Camada_1" xmlns="http://www.w3.org/2000/svg" xmlns:xlink="http://www.w3.org/1999/xlink" x="0px" y="0px"
	 viewBox="0 0 1080 1080" style="enable-background:new 0 0 1080 1080;" xml:space="preserve">
<style type="text/css">
	.st0{fill:#FFFFFF;}
</style>
<g>
	<path class="st0" d="M1018.1,301.2c0.4-99.6-78.6-171.3-168.7-168.7c-95.2,2.8-190.6,0.6-285.9,0.6v0.3
		c-100.8,0-201.7-1.1-302.5,0.4c-81.2,1.2-150.6,74.4-150.6,155.7c-0.1,188.1-0.1,376.2,0,564.3c0.1,93,69,163.2,161.8,163.5
		c194.6,0.5,389.3,0.6,583.9-0.5c22.1-0.1,45.9-4.6,65.7-13.8c63.6-29.3,95.9-81,96-151.2C1018.2,668.3,1017.4,484.8,1018.1,301.2z
		 M494.1,625.9c-26.9,5.3-54.9,5.6-82.5,6c-12.4,0.2-15.5,3.7-15.3,15.2c0.6,32.2-0.2,64.5,0.4,96.8c0.2,12-4.3,16.2-15.9,15.8
		c-16.6-0.6-33.3-0.8-49.9,0c-13.7,0.7-17.3-5.6-17.2-18.1c0.3-61,0.2-122,0.2-183c0-60,0.3-119.9-0.2-179.9
		c-0.1-14.2,3.8-19.4,18.9-19c46.8,1.2,93.7-1.1,140.3,1.7c45.7,2.8,85.3,21.4,109.3,62.8C618.8,487.5,605.8,603.9,494.1,625.9z
		 M830.9,737.7c-20.3,17.1-43.9,24.7-69.1,27.2c-36.3,3.6-72.4,1.6-107.1-11.9c-9.7-3.8-14.3-9-13.8-20.1
		c0.8-19.4,0.2-38.8,0.2-60.2c15.8,6.1,28.4,12.8,41.7,15.8c19,4.3,38.6,6.5,58.1,8.3c7.2,0.7,15.5-0.6,22-3.9
		c6-3,13.6-9.3,14.2-14.9c0.7-5.6-4.9-14.5-10.3-17.8c-12.8-7.7-27.4-12.4-40.8-19.3c-17.4-9-35.8-16.9-51.1-28.8
		c-53.4-41.6-41.1-120.9,22.2-148.7c36.6-16,75-12,113.1-8.2c3.5,0.3,6.9,1.3,10.4,1.9c21.9,3.7,24.3,6.6,24.4,28.3v52.8
		c-21.9-6-40.3-12.6-59.3-15.7c-15.2-2.5-31.2-2.4-46.4-0.6c-6.4,0.7-16.1,8.1-16.8,13.5c-0.9,6.6,4.1,17.5,9.8,20.8
		c17.3,10,36.6,16.4,54.4,25.7c16.8,8.9,34.5,17.5,48.5,29.9C871.7,644.4,868.3,706.1,830.9,737.7z"/>
	<path class="st0" d="M517.8,496.3c0.2,24.6-10,45.3-34.8,55.1c-24.4,9.6-49.9,10.8-75.7,9c-8.9-0.6-10.6-5.5-10.5-13
		c0.2-12.1,0.1-24.2,0.1-36.3v-15.1c0-4.1,0-8.3-0.1-12.4c0-7.3-0.1-14.5,0-21.8c0.1-5.7,0.2-11.5,0.5-17.2
		c0.2-4.1,5.3-11.4,7.8-11.3c26.4,1.7,53.5,1.7,78.9,8C510,447.8,517.6,472.2,517.8,496.3z"/>
</g>
</svg>
