<?xml version="1.0" encoding="utf-8"?>
<!-- Generator: Adobe Illustrator 26.0.0, SVG Export Plug-In . SVG Version: 6.00 Build 0)  -->
<svg version="1.1" id="Camada_1" xmlns="http://www.w3.org/2000/svg" xmlns:xlink="http://www.w3.org/1999/xlink" x="0px" y="0px"
	 viewBox="0 0 1080 1080" style="enable-background:new 0 0 1080 1080;" xml:space="preserve">
<style type="text/css">
	.st0{fill:#FFFFFF;}
</style>
<g>
	<path class="st0" d="M924.6,460.5c-32.3-166.8-165.8-292.7-338.4-309.4c-125.4-12-234.5,27.9-321.1,121.5
		c-112.8,121.8-133.8,294-54.4,439.6c6,11,6,20,2,31.5c-21.3,60.9-41.8,122.2-63.9,187.3c67.5-21.6,130.5-42.2,193.9-61.5
		c9.8-3,23.1-3.8,32,0.4c113.4,53.4,226.8,54.9,340.5,1.6C868.5,799.6,956.9,626.6,924.6,460.5z M745.4,644
		c-2.5,26.8-14.4,48.3-39.9,61.2c-24.6,12.5-49.8,19.3-77.1,12.1C502,684,417.6,602.1,365.5,485.4c-19.2-43.1-13.7-85.9,19.5-122.8
		c11.9-13.3,25.6-21,44.9-19.2c17.4-3.4,25.9,6.9,31.2,22.9c6.6,19.7,12.8,39.7,22,58.2c9.5,19,3.3,32.5-8.9,46.4
		c-23.8,27.3-23.5,27.3-3.3,57.7c28.4,42.7,66,74.1,112.6,95.4c11,5,18.8,4.3,26.6-4.9c8.4-10,17.8-19.2,25.8-29.5
		c7.9-10.3,16.7-12.4,27.9-6.5c24.2,12.8,48.9,24.6,72.2,38.8C741.7,625.4,746,636.8,745.4,644z"/>
</g>
</svg>
